<?xml version="1.0" encoding="UTF-8" standalone="no"?>
<!-- Created with Inkscape (http://www.inkscape.org/) -->

<svg
   xmlns:dc="http://purl.org/dc/elements/1.1/"
   xmlns:cc="http://creativecommons.org/ns#"
   xmlns:rdf="http://www.w3.org/1999/02/22-rdf-syntax-ns#"
   xmlns:svg="http://www.w3.org/2000/svg"
   xmlns="http://www.w3.org/2000/svg"
   xmlns:sodipodi="http://sodipodi.sourceforge.net/DTD/sodipodi-0.dtd"
   xmlns:inkscape="http://www.inkscape.org/namespaces/inkscape"
   width="22.710604mm"
   height="17.79212mm"
   viewBox="0 0 80.470644 63.042945"
   id="svg3574"
   version="1.1"
   inkscape:version="0.91 r13725"
   sodipodi:docname="node.svg">
  <defs
     id="defs3576" />
  <sodipodi:namedview
     id="base"
     pagecolor="#ffffff"
     bordercolor="#666666"
     borderopacity="1.0"
     inkscape:pageopacity="0.0"
     inkscape:pageshadow="2"
     inkscape:zoom="7.9195959"
     inkscape:cx="37.821383"
     inkscape:cy="25.450045"
     inkscape:document-units="px"
     inkscape:current-layer="layer1"
     showgrid="false"
     fit-margin-top="3"
     fit-margin-left="3"
     fit-margin-right="3"
     fit-margin-bottom="3"
     inkscape:window-width="1920"
     inkscape:window-height="1017"
     inkscape:window-x="-8"
     inkscape:window-y="-8"
     inkscape:window-maximized="1" />
  <metadata
     id="metadata3579">
    <rdf:RDF>
      <cc:Work
         rdf:about="">
        <dc:format>image/svg+xml</dc:format>
        <dc:type
           rdf:resource="http://purl.org/dc/dcmitype/StillImage" />
        <dc:title></dc:title>
      </cc:Work>
    </rdf:RDF>
  </metadata>
  <g
     inkscape:label="Layer 1"
     inkscape:groupmode="layer"
     id="layer1"
     transform="translate(-312.39213,-409.49944)">
    <g
       id="g3627"
       transform="translate(-0.23713142,-2.4158014)">
      <path
         style="fill:#ffffff;stroke:#555753;stroke-width:3"
         inkscape:connector-curvature="0"
         d="m 324.75918,435.00326 2,-9.0355 c 0,-1.0651 1.4965,-1.9226 3.3554,-1.9226 l 45.5,0 c 1.8589,0 3.3554,0.85748 3.3554,1.9226 l 2,9.0355 c 0,1.0651 -1.4965,1.9226 -3.3554,1.9226 l -49.5,0 c -1.8589,0 -3.3554,-0.85748 -3.3554,-1.9226 z"
         id="path23563" />
      <path
         style="fill:#ffffff;stroke:#555753;stroke-width:3"
         inkscape:connector-curvature="0"
         d="m 324.75918,446.69326 0,-10.516 c 0,-1.2397 1.4965,-2.2377 3.3554,-2.2377 l 49.5,0 c 1.8589,0 3.3554,0.998 3.3554,2.2377 l 0,10.516 c 0,1.2397 -1.4965,2.2377 -3.3554,2.2377 l -49.5,0 c -1.8589,0 -3.3554,-0.998 -3.3554,-2.2377 z"
         id="path23502" />
      <path
         inkscape:connector-curvature="0"
         d="m 376.26423,438.7172 c 0,0.78704 -0.66825,1.42507 -1.49258,1.42507 -0.82432,0 -1.49258,-0.63803 -1.49258,-1.42507 0,-0.78704 0.66826,-1.42507 1.49258,-1.42507 0.82433,0 1.49258,0.63803 1.49258,1.42507 z"
         style="color:#000000;fill:#555753;fill-rule:evenodd"
         id="path23504" />
      <path
         style="fill:#555753"
         inkscape:connector-curvature="0"
         d="m 327.85918,437.52326 c -0.08,0 -0.1513,0.13148 -0.1811,0.3125 -0.01,0.0603 -0.012,0.11818 -0.012,0.1875 -2e-4,0.01 0,0.0215 0,0.0312 l 0,2.9062 c 0,0.27728 0.086,0.5 0.1932,0.5 l 12.52,0 c 0.1071,0 0.1932,-0.22272 0.1932,-0.5 l 0,-2.9062 c 0,-0.0693 0,-0.15841 -0.012,-0.21875 -0.03,-0.18102 -0.1007,-0.3125 -0.1811,-0.3125 l -12.52,5e-5 z"
         id="path23506" />
      <path
         style="fill:#555753"
         inkscape:connector-curvature="0"
         d="m 342.65918,437.33326 c -0.08,0 -0.1513,0.13148 -0.1811,0.3125 -0.01,0.0603 -0.012,0.11818 -0.012,0.1875 -2e-4,0.01 0,0.0215 0,0.0312 l 0,2.9062 c 0,0.27728 0.086,0.5 0.1932,0.5 l 12.52,0 c 0.1071,0 0.1932,-0.22272 0.1932,-0.5 l 0,-2.9062 c 0,-0.0693 0,-0.15841 -0.012,-0.21875 -0.03,-0.18102 -0.1007,-0.3125 -0.1811,-0.3125 l -12.52,5e-5 z"
         id="path23508" />
      <path
         inkscape:connector-curvature="0"
         d="m 371.36423,438.6572 c 0,0.78704 -0.66825,1.42507 -1.49258,1.42507 -0.82432,0 -1.49258,-0.63803 -1.49258,-1.42507 0,-0.78704 0.66826,-1.42507 1.49258,-1.42507 0.82433,0 1.49258,0.63803 1.49258,1.42507 z"
         style="color:#000000;fill:#555753;fill-rule:evenodd"
         id="path23510" />
      <path
         inkscape:connector-curvature="0"
         d="m 349.35918,449.20326 0,8.125 -23.562,0 0,2 25.562,0 0,-6.125 3.0001,0 0,6.125 25.562,0 0,-2 -23.562,0 0,-8.125 -7.0001,0 z m -23.562,13.125 0,2 54.125,0 0,-2 -54.125,0 z"
         style="color:#000000;text-indent:0;text-transform:none;block-progression:tb;fill:#555753"
         id="path23554" />
    </g>
  </g>
</svg>
