<?xml version="1.0" encoding="UTF-8" standalone="no"?>
<!-- Created with Inkscape (http://www.inkscape.org/) -->

<svg
   xmlns:dc="http://purl.org/dc/elements/1.1/"
   xmlns:cc="http://creativecommons.org/ns#"
   xmlns:rdf="http://www.w3.org/1999/02/22-rdf-syntax-ns#"
   xmlns:svg="http://www.w3.org/2000/svg"
   xmlns="http://www.w3.org/2000/svg"
   xmlns:sodipodi="http://sodipodi.sourceforge.net/DTD/sodipodi-0.dtd"
   xmlns:inkscape="http://www.inkscape.org/namespaces/inkscape"
   width="29.288822mm"
   height="29.289001mm"
   viewBox="0 0 29.288822 29.289002"
   version="1.1"
   id="svg8"
   inkscape:version="0.92.1 r15371"
   sodipodi:docname="OCF.svg">
  <defs
     id="defs2" />
  <sodipodi:namedview
     id="base"
     pagecolor="#ffffff"
     bordercolor="#666666"
     borderopacity="1.0"
     inkscape:pageopacity="0.0"
     inkscape:pageshadow="2"
     inkscape:zoom="3.959798"
     inkscape:cx="14.870439"
     inkscape:cy="32.528454"
     inkscape:document-units="mm"
     inkscape:current-layer="layer2"
     showgrid="false"
     fit-margin-top="0.1"
     fit-margin-left="0.1"
     fit-margin-right="0.1"
     fit-margin-bottom="0.1"
     inkscape:window-width="1920"
     inkscape:window-height="1017"
     inkscape:window-x="-8"
     inkscape:window-y="-8"
     inkscape:window-maximized="1" />
  <metadata
     id="metadata5">
    <rdf:RDF>
      <cc:Work
         rdf:about="">
        <dc:format>image/svg+xml</dc:format>
        <dc:type
           rdf:resource="http://purl.org/dc/dcmitype/StillImage" />
        <dc:title></dc:title>
      </cc:Work>
    </rdf:RDF>
  </metadata>
  <g
     inkscape:groupmode="layer"
     id="layer2"
     inkscape:label="Layer 2"
     style="display:inline"
     transform="translate(-26.767642,-98.304623)">
    <path
       style="display:inline;fill:#0081a7;fill-opacity:1;stroke:none;stroke-width:26.45833397;stroke-miterlimit:4;stroke-dasharray:none;stroke-opacity:1"
       d="m 41.411795,98.404623 c -0.840153,0 -1.68012,0.322064 -2.323889,0.965832 l -11.25461,11.254615 c -1.287538,1.28754 -1.287538,3.36076 0,4.64829 l 11.25461,11.25461 c 1.287538,1.28754 3.360757,1.28754 4.648295,0 L 54.99081,115.27336 c 1.28754,-1.28753 1.28754,-3.36075 0,-4.64829 L 43.736201,99.370455 c -0.643769,-0.643768 -1.484253,-0.965832 -2.324406,-0.965832 z m -0.568233,8.632337 c 0.532715,0 1.065615,0.20417 1.473811,0.61237 l 7.120496,7.12049 c 0.816391,0.81639 0.81639,2.13123 0,2.94763 l -3.811861,3.81186 c -0.816391,0.81639 -2.130716,0.81639 -2.947107,0 l -7.121012,-7.12049 c -0.816391,-0.8164 -0.816391,-2.13124 0,-2.94763 l 3.812377,-3.81186 c 0.408195,-0.4082 0.940579,-0.61237 1.473296,-0.61237 z"
       id="rect4496-7"
       inkscape:connector-curvature="0"
       sodipodi:nodetypes="ssscsscscsscscsccccs" />
    <path
       style="fill:#0090b6;fill-opacity:1;stroke:none;stroke-width:26.45833206;stroke-miterlimit:4;stroke-dasharray:none;stroke-opacity:1"
       d="m 41.411795,98.404623 c -0.840153,0 -1.68012,0.322064 -2.323889,0.965832 l -11.25461,11.254615 c -1.287538,1.28754 -1.287538,3.36076 0,4.64829 l 4.571814,4.57182 4.323767,-4.26589 -1.170988,-1.17047 c -0.816391,-0.8164 -0.816391,-2.13124 0,-2.94763 l 3.812377,-3.81186 c 0.408195,-0.4082 0.940579,-0.61237 1.473296,-0.61237 0.532715,0 1.065615,0.20417 1.473811,0.61237 l 1.2392,1.2392 4.858929,-4.83877 -4.679301,-4.679305 c -0.643769,-0.643768 -1.484252,-0.965832 -2.324406,-0.965832 z"
       id="rect4496"
       inkscape:connector-curvature="0"
       sodipodi:nodetypes="sssccccccsccccs" />
    <path
       style="display:inline;fill:#68b953;fill-opacity:1;stroke:none;stroke-width:26.45833206;stroke-miterlimit:4;stroke-dasharray:none;stroke-opacity:1"
       d="m 44.152197,103.72833 c -0.532717,0 -1.065101,0.20417 -1.473296,0.61237 l -3.307291,3.30729 c 0.81639,-0.81639 2.130716,-0.81639 2.947106,0 l 7.120496,7.12049 c 0.816391,0.81639 0.816391,2.13124 0,2.94763 l 3.307292,-3.30729 c 0.81639,-0.8164 0.81639,-2.13124 0,-2.94763 l -7.120496,-7.12049 c -0.408196,-0.4082 -0.941096,-0.61237 -1.473811,-0.61237 z"
       id="rect4496-3"
       inkscape:connector-curvature="0" />
  </g>
</svg>
